<?xml version="1.0" encoding="UTF-8"?>
<svg width="800" height="800" viewBox="0 0 800 800" fill="none" xmlns="http://www.w3.org/2000/svg">
  <!-- Background Grid -->
  <defs>
    <pattern id="grid" x="0" y="0" width="40" height="40" patternUnits="userSpaceOnUse">
      <path d="M 40 0 L 0 0 0 40" fill="none" stroke="rgba(147, 51, 234, 0.1)" stroke-width="1"/>
    </pattern>
  </defs>
  <rect width="800" height="800" fill="url(#grid)"/>

  <!-- Main Elements -->
  <g transform="translate(100, 100)">
    <!-- Floating Server -->
    <g transform="translate(300, 200)">
      <rect x="0" y="0" width="200" height="300" rx="20" fill="url(#serverGradient)" filter="url(#glow)"/>
      <circle cx="100" cy="50" r="20" fill="#60A5FA"/>
      <rect x="40" y="100" width="120" height="10" rx="5" fill="#60A5FA"/>
      <rect x="40" y="130" width="120" height="10" rx="5" fill="#60A5FA"/>
      <rect x="40" y="160" width="120" height="10" rx="5" fill="#60A5FA"/>
    </g>

    <!-- Connected Nodes -->
    <g transform="translate(0, 0)">
      <circle cx="150" cy="150" r="100" fill="url(#nodeGradient)" filter="url(#glow)"/>
      <circle cx="450" cy="450" r="80" fill="url(#nodeGradient)" filter="url(#glow)"/>
      <path d="M 150 150 L 450 450" stroke="url(#connectionGradient)" stroke-width="4" filter="url(#glow)"/>
    </g>

    <!-- Floating Code Blocks -->
    <g transform="translate(50, 300)">
      <rect x="0" y="0" width="160" height="100" rx="10" fill="#1E293B" filter="url(#glow)"/>
      <rect x="20" y="20" width="80" height="10" rx="5" fill="#60A5FA"/>
      <rect x="20" y="40" width="100" height="10" rx="5" fill="#818CF8"/>
      <rect x="20" y="60" width="60" height="10" rx="5" fill="#60A5FA"/>
    </g>
  </g>

  <!-- Gradients and Filters -->
  <defs>
    <linearGradient id="serverGradient" x1="0" y1="0" x2="1" y2="1">
      <stop offset="0%" stop-color="#3B82F6"/>
      <stop offset="100%" stop-color="#8B5CF6"/>
    </linearGradient>

    <linearGradient id="nodeGradient" x1="0" y1="0" x2="1" y2="1">
      <stop offset="0%" stop-color="#60A5FA"/>
      <stop offset="100%" stop-color="#818CF8"/>
    </linearGradient>

    <linearGradient id="connectionGradient" x1="0" y1="0" x2="1" y2="1">
      <stop offset="0%" stop-color="#60A5FA"/>
      <stop offset="100%" stop-color="#818CF8"/>
    </linearGradient>

    <filter id="glow" x="-50%" y="-50%" width="200%" height="200%">
      <feGaussianBlur in="SourceGraphic" stdDeviation="5"/>
      <feColorMatrix type="matrix" values="
        0 0 0 0 0.376471
        0 0 0 0 0.509804
        0 0 0 0 0.980392
        0 0 0 0.3 0
      "/>
      <feBlend in="SourceGraphic" in2="glow" mode="normal"/>
    </filter>
  </defs>

  <!-- Decorative Elements -->
  <g transform="translate(400, 400)">
    <circle cx="0" cy="0" r="5" fill="#60A5FA">
      <animate attributeName="r" values="5;8;5" dur="2s" repeatCount="indefinite"/>
      <animate attributeName="opacity" values="0.8;0.3;0.8" dur="2s" repeatCount="indefinite"/>
    </circle>
  </g>
</svg> 